<svg width="284" height="270" viewBox="0 0 284 270" fill="none" xmlns="http://www.w3.org/2000/svg">
  <path
    d="M235.046 72.6745L234.982 72.2004L228.288 22.8219C228.288 22.8202 228.288 22.8185 228.288 22.8169L227.714 18.5876C227.458 16.6957 225.396 15.637 223.709 16.5308L219.936 18.5301C219.935 18.5305 219.934 18.5309 219.933 18.5312L175.901 41.8598L175.479 42.0838L175.904 42.3023L234.621 72.4559L235.046 72.6745Z"
    fill="#F3B16E" stroke="black" stroke-width="0.499076" />
  <path
    d="M218.691 26.6849C220.247 25.8182 222.184 26.8127 222.385 28.5819L226.906 68.2135L183.847 46.1008L218.691 26.6849Z"
    fill="#F6E1EE" />
  <path
    d="M216.774 27.7532C219.271 26.3617 222.31 27.9223 222.634 30.7625L226.906 68.2135L183.847 46.1008L216.774 27.7532Z"
    fill="#F6E1EE" />
  <path
    d="M48.8013 72.6745L48.8655 72.2004L55.5594 22.8219C55.5596 22.8202 55.5598 22.8185 55.56 22.8169L56.1334 18.5876C56.3898 16.6957 58.4514 15.637 60.1385 16.5308L63.9122 18.5301C63.9129 18.5305 63.9136 18.5309 63.9143 18.5312L107.946 41.8598L108.369 42.0838L107.944 42.3023L49.2268 72.4559L48.8013 72.6745Z"
    fill="#F3B16E" stroke="black" stroke-width="0.499076" />
  <path
    d="M65.1565 26.6849C63.601 25.8182 61.6644 26.8127 61.4626 28.5819L56.9418 68.2135L100.001 46.1008L65.1565 26.6849Z"
    fill="#F6E1EE" />
  <path
    d="M67.0737 27.7532C64.5766 26.3617 61.5378 27.9223 61.2138 30.7625L56.9418 68.2135L100.001 46.1008L67.0737 27.7532Z"
    fill="#F6E1EE" />
  <path
    d="M265.978 141.365C265.978 155.834 262.817 166.988 257.025 175.588C251.233 184.187 242.794 190.253 232.199 194.52C210.993 203.06 181.201 204.372 146.865 204.372C112.532 204.372 80.2588 203.061 56.5721 194.517C44.7341 190.247 35.0582 184.176 28.3411 175.573C21.6263 166.974 17.8513 155.825 17.8513 141.365C17.8513 83.5166 73.3554 36.5533 141.915 36.5533C210.474 36.5533 265.978 83.5166 265.978 141.365Z"
    fill="#69D7E2" stroke="black" stroke-width="0.499076" />
  <path
    d="M133.964 100.11C133.964 118.175 117.603 132.864 97.3601 132.864C77.1176 132.864 60.7559 118.175 60.7559 100.11C60.7559 82.046 77.1176 67.3564 97.3601 67.3564C117.603 67.3564 133.964 82.046 133.964 100.11Z"
    fill="white" stroke="black" stroke-width="0.499076" />
  <ellipse cx="79.2082" cy="101.76" rx="11.0011" ry="11.5512" fill="black" />
  <ellipse cx="84.1585" cy="104.511" rx="2.75028" ry="3.30034" fill="white" />
  <path
    d="M223.074 100.11C223.074 118.175 206.712 132.864 186.469 132.864C166.227 132.864 149.865 118.175 149.865 100.11C149.865 82.046 166.227 67.3564 186.469 67.3564C206.712 67.3564 223.074 82.046 223.074 100.11Z"
    fill="white" stroke="black" stroke-width="0.499076" />
  <ellipse cx="168.317" cy="101.76" rx="11.0011" ry="11.5512" fill="black" />
  <ellipse cx="173.268" cy="104.511" rx="2.75028" ry="3.30034" fill="white" />
  <path
    d="M128.963 145.464H141.665V170.919C141.665 171.886 141.046 172.744 140.129 173.05L137.602 173.892C136.117 174.387 134.511 174.387 133.025 173.892L130.498 173.05C129.581 172.744 128.963 171.886 128.963 170.919V145.464Z"
    fill="white" stroke="black" stroke-width="0.499076" />
  <path
    d="M142.164 145.464H154.866V170.919C154.866 171.886 154.248 172.744 153.331 173.05L150.804 173.892C149.318 174.387 147.712 174.387 146.227 173.892L143.7 173.05C142.783 172.744 142.164 171.886 142.164 170.919V145.464Z"
    fill="white" stroke="black" stroke-width="0.499076" />
  <path
    d="M170.268 143.015C170.268 143.134 170.268 143.255 170.268 143.376C170.271 144.902 170.273 146.562 169.944 148.143C169.59 149.841 168.857 151.427 167.342 152.629C165.822 153.833 163.486 154.675 159.879 154.821C156.272 154.967 151.412 154.416 144.869 152.853C142.935 152.39 140.894 152.461 138.991 153.029C127.188 156.55 121.139 155.559 118.034 153.005C114.926 150.447 114.661 146.241 114.661 143.015C114.661 141.42 115.401 139.675 116.769 137.943C118.134 136.214 120.112 134.516 122.551 133.02C127.428 130.029 134.121 127.863 141.365 127.863C148.61 127.863 155.857 130.03 161.289 133.026C164.005 134.524 166.258 136.225 167.828 137.956C169.403 139.692 170.268 141.433 170.268 143.015Z"
    fill="#F6D2A2" stroke="black" stroke-width="0.499076" />
  <ellipse cx="142.465" cy="129.813" rx="13.7514" ry="9.90102" fill="black" />
  <line x1="162.817" y1="146.066" x2="283.829" y2="146.066" stroke="black" stroke-width="0.499076" />
  <line x1="163.025" y1="142.539" x2="283.577" y2="131.992" stroke="black" stroke-width="0.499076" />
  <line x1="163.069" y1="149.594" x2="283.621" y2="160.141" stroke="black" stroke-width="0.499076" />
  <line y1="-0.249538" x2="121.012" y2="-0.249538" transform="matrix(-1 0 0 1 121.012 146.088)"
    stroke="black" stroke-width="0.499076" />
  <line y1="-0.249538" x2="121.012" y2="-0.249538"
    transform="matrix(-0.996195 -0.0871557 -0.0871557 0.996195 120.782 142.561)" stroke="black"
    stroke-width="0.499076" />
  <line y1="-0.249538" x2="121.012" y2="-0.249538"
    transform="matrix(-0.996195 0.0871557 0.0871557 0.996195 120.782 149.615)" stroke="black"
    stroke-width="0.499076" />
  <path
    d="M114.702 267.131C111.052 267.131 108.26 266.492 106.326 265.213C104.408 263.949 103.449 262.171 103.449 259.879C103.449 258.304 103.94 256.986 104.923 255.925C105.905 254.865 107.348 254.108 109.251 253.656C108.518 253.344 107.878 252.837 107.332 252.135C106.787 251.418 106.514 250.661 106.514 249.866C106.514 248.868 106.802 248.041 107.379 247.386C107.956 246.716 108.791 246.061 109.882 245.421C108.51 244.829 107.418 243.877 106.607 242.567C105.812 241.257 105.414 239.713 105.414 237.935C105.414 236.032 105.827 234.418 106.654 233.092C107.496 231.751 108.713 230.73 110.303 230.028C111.91 229.326 113.859 228.975 116.152 228.975C116.635 228.975 117.197 229.006 117.836 229.069C118.476 229.131 119.061 229.201 119.591 229.279C120.137 229.357 120.503 229.42 120.69 229.466H129.814V233.092L125.72 234.145C126.095 234.722 126.375 235.338 126.562 235.993C126.75 236.648 126.843 237.342 126.843 238.075C126.843 240.883 125.861 243.074 123.895 244.649C121.946 246.209 119.232 246.989 115.754 246.989C114.928 246.942 114.148 246.879 113.415 246.801C113.056 247.082 112.783 247.379 112.596 247.69C112.409 248.002 112.315 248.33 112.315 248.673C112.315 249.016 112.456 249.305 112.736 249.539C113.033 249.757 113.469 249.928 114.047 250.053C114.639 250.162 115.372 250.217 116.246 250.217H120.69C123.56 250.217 125.744 250.833 127.241 252.065C128.754 253.297 129.51 255.106 129.51 257.493C129.51 260.549 128.231 262.92 125.673 264.604C123.131 266.289 119.474 267.131 114.702 267.131ZM115.006 262.476C116.706 262.476 118.164 262.312 119.38 261.984C120.612 261.672 121.556 261.22 122.211 260.627C122.866 260.05 123.194 259.356 123.194 258.545C123.194 257.89 122.999 257.368 122.609 256.978C122.234 256.604 121.657 256.338 120.878 256.183C120.113 256.027 119.131 255.949 117.93 255.949H114.234C113.36 255.949 112.573 256.089 111.871 256.37C111.185 256.65 110.639 257.04 110.233 257.539C109.828 258.054 109.625 258.647 109.625 259.317C109.625 260.3 110.093 261.072 111.029 261.633C111.98 262.195 113.306 262.476 115.006 262.476ZM116.152 242.637C117.493 242.637 118.476 242.224 119.1 241.397C119.724 240.571 120.035 239.448 120.035 238.029C120.035 236.453 119.708 235.276 119.053 234.496C118.413 233.701 117.446 233.303 116.152 233.303C114.842 233.303 113.859 233.701 113.204 234.496C112.549 235.276 112.222 236.453 112.222 238.029C112.222 239.448 112.541 240.571 113.181 241.397C113.836 242.224 114.826 242.637 116.152 242.637ZM144.857 228.928C148.366 228.928 151.056 229.693 152.928 231.221C154.799 232.749 155.735 235.073 155.735 238.192V255.621H150.752L149.372 252.065H149.185C148.436 253.001 147.672 253.765 146.892 254.358C146.112 254.95 145.215 255.387 144.202 255.668C143.188 255.949 141.956 256.089 140.505 256.089C138.961 256.089 137.573 255.793 136.341 255.2C135.125 254.607 134.166 253.703 133.464 252.486C132.762 251.254 132.411 249.695 132.411 247.807C132.411 245.031 133.386 242.988 135.335 241.678C137.285 240.352 140.209 239.619 144.108 239.479L148.647 239.339V238.192C148.647 236.82 148.288 235.814 147.57 235.175C146.853 234.535 145.855 234.215 144.576 234.215C143.313 234.215 142.073 234.395 140.856 234.753C139.64 235.112 138.423 235.564 137.207 236.11L134.844 231.291C136.232 230.558 137.784 229.981 139.499 229.56C141.231 229.139 143.016 228.928 144.857 228.928ZM148.647 243.503L145.886 243.596C143.578 243.659 141.971 244.072 141.067 244.836C140.178 245.601 139.733 246.607 139.733 247.854C139.733 248.946 140.053 249.726 140.692 250.194C141.332 250.646 142.166 250.872 143.196 250.872C144.724 250.872 146.011 250.42 147.056 249.515C148.116 248.611 148.647 247.324 148.647 245.655V243.503ZM174.123 250.404C174.903 250.404 175.659 250.326 176.392 250.17C177.141 250.014 177.881 249.819 178.614 249.585V254.896C177.85 255.239 176.899 255.52 175.76 255.738C174.637 255.972 173.405 256.089 172.064 256.089C170.504 256.089 169.101 255.839 167.853 255.34C166.621 254.826 165.646 253.944 164.929 252.697C164.227 251.434 163.876 249.679 163.876 247.433V234.824H160.461V231.806L164.391 229.42L166.449 223.899H171.011V229.466H178.334V234.824H171.011V247.433C171.011 248.431 171.292 249.18 171.854 249.679C172.431 250.162 173.187 250.404 174.123 250.404Z"
    fill="black" />
</svg>
